<?xml version="1.0" encoding="utf-8"?>
<svg width="495" height="196" viewBox="0 0 495 196" fill="none" xmlns="http://www.w3.org/2000/svg">
  <path d="M56.5207 70.879C59.1388 65.8393 72.8744 53.6168 83.9589 51.2418C88.9279 50.1771 90.7491 52.9241 90.9793 56.9237C113.401 59.5148 134.338 78.3991 139.142 101.31C140.441 107.508 140.436 113.41 139.315 118.776L144.786 118.689C142.166 125.862 133.448 140.869 112.924 145.172C112.143 145.336 111.364 145.466 110.586 145.563C108.628 145.851 106.596 146 104.5 146C80.1933 146 56.2946 125.992 51.1204 101.31C48.6558 89.5538 50.8841 78.8576 56.5207 70.879Z" style="fill: rgb(168, 76, 110);"/>
  <ellipse rx="43.2139" ry="45.2383" transform="matrix(1 0 0.205179 0.978724 103.451 94.2759)" style="fill: rgb(244, 104, 107);"/>
  <ellipse rx="33.9402" ry="35.5142" transform="matrix(1 0 0.205179 0.978724 104.37 92.2069)" fill="white"/>
  <ellipse rx="25.1215" ry="25.6606" transform="matrix(1 0 0.205179 0.978724 105.248 91.0922)" style="fill: rgb(244, 104, 107);"/>
  <circle r="16.0975" transform="matrix(1 0 0.205179 0.978724 106.774 90.0514)" fill="white"/>
  <circle r="7.94475" transform="matrix(1 0 0.205179 0.978724 106.775 90.0516)" style="fill: rgb(244, 104, 107);"/>
  <path d="M219.288 120C219.288 120.552 219.736 121 220.288 121H227.89C228.442 121 228.89 120.552 228.89 120V83.4906H220.288C219.736 83.4906 219.288 83.9383 219.288 84.4906V120Z" style="fill: rgb(244, 104, 107);"/>
  <path d="M219.597 77.5499C220.518 78.517 221.923 79.0005 223.811 79.0005C225.699 79.0005 227.081 78.517 227.955 77.5499C228.83 76.5368 229.268 75.2934 229.268 73.8197C229.268 72.254 228.83 70.9875 227.955 70.0205C227.081 69.0534 225.699 68.5698 223.811 68.5698C221.923 68.5698 220.518 69.0534 219.597 70.0205C218.722 70.9875 218.285 72.254 218.285 73.8197C218.285 75.2934 218.722 76.5368 219.597 77.5499Z" style="fill: rgb(244, 104, 107);"/>
  <path fill-rule="evenodd" clip-rule="evenodd" d="M204.152 103.454C201.205 104.836 197.613 105.526 193.376 105.526H185.778V120C185.778 120.552 185.33 121 184.778 121H176.969C176.416 121 175.969 120.552 175.969 120V71.2277C175.969 70.6754 176.416 70.2277 176.969 70.2277H184.778C184.886 70.2277 184.99 70.2448 185.087 70.2764C185.184 70.2448 185.288 70.2277 185.396 70.2277H193.376C197.613 70.2277 201.205 70.9185 204.152 72.3C207.146 73.6816 209.425 75.6618 210.991 78.2407C212.557 80.7735 213.34 83.7899 213.34 87.2898V88.3951C213.34 91.895 212.557 94.9344 210.991 97.5133C209.425 100.046 207.146 102.026 204.152 103.454ZM199.179 79.8985C197.843 79.1157 196.185 78.7242 194.205 78.7242H185.778V97.0298H194.205C196.185 97.0298 197.843 96.6383 199.179 95.8554C200.56 95.0726 201.596 93.9903 202.287 92.6088C203.024 91.2272 203.393 89.6385 203.393 87.8424C203.393 86.0464 203.024 84.4576 202.287 83.0761C201.596 81.6945 200.56 80.6354 199.179 79.8985Z" style="fill: rgb(244, 104, 107);"/>
  <path d="M237.502 121C236.949 121 236.502 120.552 236.502 120V84.4906C236.502 83.9383 236.949 83.4906 237.502 83.4906H243.1C243.652 83.4906 244.1 83.9383 244.1 84.4906V92.7338C244.323 91.7718 244.599 90.8781 244.929 90.0529C245.942 87.474 247.439 85.5399 249.419 84.2504C251.445 82.961 253.955 82.3162 256.949 82.3162H257.363C261.83 82.3162 265.215 83.7669 267.517 86.6681C269.82 89.5233 270.971 93.8061 270.971 99.5165V120C270.971 120.552 270.524 121 269.971 121H262.37C261.817 121 261.37 120.552 261.37 120V98.6876C261.37 96.385 260.702 94.5199 259.366 93.0923C258.077 91.6647 256.281 90.9509 253.978 90.9509C251.63 90.9509 249.718 91.6878 248.245 93.1614C246.817 94.589 246.103 96.5232 246.103 98.9639V120C246.103 120.552 245.656 121 245.103 121H237.502Z" style="fill: rgb(244, 104, 107);"/>
  <path fill-rule="evenodd" clip-rule="evenodd" d="M306.784 103.454C303.836 104.836 300.244 105.526 296.008 105.526H288.409V120C288.409 120.552 287.961 121 287.409 121H279.6C279.048 121 278.6 120.552 278.6 120V71.2277C278.6 70.6754 279.048 70.2277 279.6 70.2277H287.409C287.517 70.2277 287.621 70.2448 287.718 70.2764C287.816 70.2448 287.92 70.2277 288.028 70.2277H296.008C300.244 70.2277 303.836 70.9185 306.784 72.3C309.777 73.6816 312.057 75.6618 313.622 78.2407C315.188 80.7735 315.971 83.7899 315.971 87.2898V88.3951C315.971 91.895 315.188 94.9344 313.622 97.5133C312.057 100.046 309.777 102.026 306.784 103.454ZM301.81 79.8985C300.475 79.1157 298.817 78.7242 296.837 78.7242H288.409V97.0298H296.837C298.817 97.0298 300.475 96.6383 301.81 95.8554C303.192 95.0726 304.228 93.9903 304.919 92.6088C305.655 91.2272 306.024 89.6385 306.024 87.8424C306.024 86.0464 305.655 84.4576 304.919 83.0761C304.228 81.6945 303.192 80.6354 301.81 79.8985Z" style="fill: rgb(244, 104, 107);"/>
  <path fill-rule="evenodd" clip-rule="evenodd" d="M337.343 122.312C334.027 122.312 331.103 121.783 328.57 120.723C326.037 119.664 323.896 118.237 322.146 116.441C320.396 114.598 319.06 112.526 318.139 110.224C317.264 107.921 316.827 105.526 316.827 103.039V101.589C316.827 99.01 317.287 96.5692 318.208 94.2666C319.176 91.918 320.534 89.8457 322.284 88.0497C324.08 86.2076 326.244 84.78 328.777 83.7669C331.31 82.7077 334.165 82.1781 337.343 82.1781C340.52 82.1781 343.376 82.7077 345.909 83.7669C348.441 84.78 350.583 86.2076 352.333 88.0497C354.129 89.8457 355.487 91.918 356.408 94.2666C357.329 96.5692 357.79 99.01 357.79 101.589V103.039C357.79 105.526 357.329 107.921 356.408 110.224C355.533 112.526 354.221 114.598 352.471 116.441C350.721 118.237 348.579 119.664 346.047 120.723C343.514 121.783 340.613 122.312 337.343 122.312ZM337.343 114.092C339.692 114.092 341.672 113.585 343.284 112.572C344.895 111.513 346.116 110.108 346.945 108.358C347.774 106.562 348.188 104.536 348.188 102.28C348.188 99.9771 347.751 97.9508 346.876 96.2008C346.047 94.4048 344.803 93.0002 343.145 91.9871C341.534 90.9279 339.599 90.3983 337.343 90.3983C335.086 90.3983 333.129 90.9279 331.471 91.9871C329.86 93.0002 328.616 94.4048 327.741 96.2008C326.866 97.9508 326.429 99.9771 326.429 102.28C326.429 104.536 326.843 106.562 327.672 108.358C328.547 110.108 329.79 111.513 331.402 112.572C333.014 113.585 334.994 114.092 337.343 114.092Z" style="fill: rgb(244, 104, 107);"/>
  <path d="M364.539 120C364.539 120.552 364.987 121 365.539 121H373.141C373.694 121 374.141 120.552 374.141 120V83.4906H365.539C364.987 83.4906 364.539 83.9383 364.539 84.4906V120Z" style="fill: rgb(244, 104, 107);"/>
  <path d="M364.849 77.5499C365.77 78.517 367.174 79.0005 369.062 79.0005C370.951 79.0005 372.332 78.517 373.207 77.5499C374.082 76.5368 374.52 75.2934 374.52 73.8197C374.52 72.254 374.082 70.9875 373.207 70.0205C372.332 69.0534 370.951 68.5698 369.062 68.5698C367.174 68.5698 365.77 69.0534 364.849 70.0205C363.974 70.9875 363.536 72.254 363.536 73.8197C363.536 75.2934 363.974 76.5368 364.849 77.5499Z" style="fill: rgb(244, 104, 107);"/>
  <path d="M382.753 121C382.201 121 381.753 120.552 381.753 120V84.4906C381.753 83.9383 382.201 83.4906 382.753 83.4906H388.352C388.904 83.4906 389.352 83.9383 389.352 84.4906V92.7338C389.574 91.7717 389.851 90.8781 390.181 90.0529C391.194 87.474 392.691 85.5399 394.671 84.2504C396.697 82.961 399.207 82.3162 402.2 82.3162H402.615C407.082 82.3162 410.466 83.7669 412.769 86.6681C415.072 89.5233 416.223 93.8061 416.223 99.5165V120C416.223 120.552 415.775 121 415.223 121H407.621C407.069 121 406.621 120.552 406.621 120V98.6876C406.621 96.385 405.953 94.5199 404.618 93.0923C403.328 91.6647 401.532 90.9509 399.23 90.9509C396.881 90.9509 394.97 91.6878 393.496 93.1614C392.069 94.589 391.355 96.5232 391.355 98.9639V120C391.355 120.552 390.907 121 390.355 121H382.753Z" style="fill: rgb(244, 104, 107);"/>
  <path d="M430.828 120.171C433.085 121.046 435.94 121.483 439.394 121.483H443.782C444.334 121.483 444.782 121.035 444.782 120.483V114.263C444.782 113.711 444.334 113.263 443.782 113.263H438.911C437.068 113.263 435.641 112.779 434.628 111.812C433.661 110.799 433.177 109.372 433.177 107.53L433.211 90.5365H443.782C444.334 90.5365 444.782 90.0887 444.782 89.5365V84.4906C444.782 83.9383 444.334 83.4906 443.782 83.4906H433.225L433.244 73.9237C433.245 73.3706 432.797 72.9217 432.244 72.9217H425.264C424.713 72.9217 424.265 73.3682 424.264 73.9197L424.245 83.4906H419.256C418.704 83.4906 418.256 83.9383 418.256 84.4906V89.5365C418.256 90.0887 418.704 90.5365 419.256 90.5365H424.23L424.197 106.908C424.197 110.546 424.75 113.447 425.855 115.612C426.96 117.73 428.618 119.25 430.828 120.171Z" style="fill: rgb(244, 104, 107);"/>
</svg>