<?xml version="1.0" encoding="utf-8"?>
<svg width="120px" height="120px" viewBox="0 0 120 120" fill="none" xmlns="http://www.w3.org/2000/svg">
  <path d="M 16.38 31.91 C 18.998 26.87 32.733 14.648 43.818 12.273 C 48.787 11.208 50.608 13.955 50.838 17.955 C 73.26 20.546 94.197 39.43 99.001 62.341 C 100.3 68.539 100.295 74.441 99.174 79.807 L 104.645 79.72 C 102.025 86.893 93.307 101.9 72.783 106.203 C 72.002 106.367 71.223 106.497 70.445 106.594 C 68.487 106.882 66.455 107.031 64.359 107.031 C 40.052 107.031 16.154 87.023 10.979 62.341 C 8.515 50.585 10.743 39.889 16.38 31.91 Z" style="fill: rgb(168, 76, 110);"/>
  <ellipse rx="43.214" ry="44.276" transform="matrix(1, 0, 0.209639, 1, 63.309937, 55.306835)" style="fill: rgb(244, 104, 107);"/>
  <ellipse rx="33.94" ry="34.759" transform="matrix(1, 0, 0.209639, 1, 64.228943, 53.237835)" fill="white"/>
  <ellipse rx="25.122" ry="25.115" transform="matrix(1, 0, 0.209639, 1, 65.106941, 52.123135)" style="fill: rgb(244, 104, 107);"/>
  <circle r="16.0975" transform="matrix(1, 0, 0.205179, 0.978724, 66.632942, 51.082333)" fill="white"/>
  <circle r="7.94475" transform="matrix(1, 0, 0.205179, 0.978724, 66.633942, 51.082531)" style="fill: rgb(244, 104, 107);"/>
</svg>